<svg width="36" height="30" viewBox="0 0 36 30" fill="none" xmlns="http://www.w3.org/2000/svg">
<path d="M20.5 23.75H18V21.25C17.999 20.2557 17.6036 19.3025 16.9006 18.5994C16.1975 17.8964 15.2443 17.501 14.25 17.5H9.25C8.25574 17.501 7.30249 17.8964 6.59945 18.5994C5.8964 19.3025 5.50099 20.2557 5.5 21.25V23.75H3V21.25C3.00198 19.593 3.6611 18.0044 4.83278 16.8328C6.00445 15.6611 7.59301 15.002 9.25 15H14.25C15.907 15.002 17.4956 15.6611 18.6672 16.8328C19.8389 18.0044 20.498 19.593 20.5 21.25V23.75ZM11.75 2.5C12.4917 2.5 13.2167 2.71993 13.8334 3.13199C14.4501 3.54404 14.9307 4.12971 15.2145 4.81494C15.4984 5.50016 15.5726 6.25416 15.4279 6.98159C15.2833 7.70902 14.9261 8.3772 14.4017 8.90165C13.8772 9.4261 13.209 9.78325 12.4816 9.92795C11.7542 10.0726 11.0002 9.99838 10.3149 9.71455C9.62971 9.43072 9.04404 8.95007 8.63199 8.33339C8.21993 7.7167 8 6.99168 8 6.25C8 5.25544 8.39509 4.30161 9.09835 3.59835C9.80161 2.89509 10.7554 2.5 11.75 2.5ZM11.75 0C10.5139 0 9.30549 0.366556 8.27769 1.05331C7.24988 1.74007 6.4488 2.71619 5.97575 3.85823C5.50271 5.00027 5.37893 6.25693 5.62009 7.46931C5.86125 8.6817 6.4565 9.79534 7.33058 10.6694C8.20466 11.5435 9.3183 12.1388 10.5307 12.3799C11.7431 12.6211 12.9997 12.4973 14.1418 12.0242C15.2838 11.5512 16.2599 10.7501 16.9467 9.72231C17.6334 8.69451 18 7.48613 18 6.25C18 4.5924 17.3415 3.00269 16.1694 1.83058C14.9973 0.65848 13.4076 0 11.75 0ZM0.5 27.5H35.5V30H0.5V27.5ZM32.1287 5C31.6841 5.00005 31.2439 5.08923 30.8342 5.26227C30.4246 5.43532 30.0538 5.68872 29.7438 6.0075L29.25 6.5125L28.7562 6.00625C28.4462 5.68753 28.0754 5.4342 27.6657 5.26121C27.2561 5.08823 26.8159 4.9991 26.3713 4.9991C25.9266 4.9991 25.4864 5.08823 25.0768 5.26121C24.6671 5.4342 24.2963 5.68753 23.9862 6.00625C23.3539 6.65912 23.0004 7.53236 23.0004 8.44125C23.0004 9.35014 23.3539 10.2234 23.9862 10.8763L29.25 16.25L34.5125 10.8775C35.1448 10.2246 35.4984 9.35139 35.4984 8.4425C35.4984 7.53361 35.1448 6.66037 34.5125 6.0075C34.2027 5.68902 33.8323 5.43579 33.4232 5.26276C33.014 5.08972 32.5743 5.00038 32.13 5" fill="#F9FDFE"/>
</svg>
