<svg width="40" height="28" viewBox="0 0 40 28" fill="none" xmlns="http://www.w3.org/2000/svg">
<path d="M1 18C0.734784 18 0.48043 18.1054 0.292893 18.2929C0.105357 18.4804 0 18.7348 0 19C0 19.2652 0.105357 19.5196 0.292893 19.7071C0.48043 19.8946 0.734784 20 1 20H4C4 22.1217 4.84285 24.1566 6.34315 25.6569C7.84344 27.1571 9.87827 28 12 28H28C30.1217 28 32.1566 27.1571 33.6569 25.6569C35.1571 24.1566 36 22.1217 36 20H39C39.2652 20 39.5196 19.8946 39.7071 19.7071C39.8946 19.5196 40 19.2652 40 19C40 18.7348 39.8946 18.4804 39.7071 18.2929C39.5196 18.1054 39.2652 18 39 18H1Z" fill="#F9FDFE"/>
<path fill-rule="evenodd" clip-rule="evenodd" d="M19.105 0.0539551L20 0.499955L20.895 0.946955L20.893 0.949955L20.881 0.974956L20.831 1.08496C20.5638 1.68158 20.3626 2.30562 20.231 2.94596C19.995 4.12496 20.082 5.16796 20.707 5.79296C22.082 7.16796 21.995 9.12495 21.731 10.446C21.5588 11.2874 21.2883 12.1057 20.925 12.884L20.905 12.927L20.898 12.94L20.896 12.945L20.895 12.946L20 12.5L19.105 12.053L19.107 12.05L19.119 12.025L19.169 11.915C19.4362 11.3183 19.6374 10.6943 19.769 10.054C20.005 8.87496 19.918 7.83196 19.293 7.20696C17.918 5.83196 18.005 3.87496 18.269 2.55396C18.4412 1.71251 18.7117 0.894234 19.075 0.115955L19.095 0.0729551L19.102 0.0599556L19.104 0.0559549L19.105 0.0539551ZM11.17 2.44096L12 3.00096C12.829 3.55996 12.83 3.55896 12.83 3.55896L12.817 3.57896C12.7293 3.71891 12.6472 3.86236 12.571 4.00896C12.382 4.36782 12.2311 4.74556 12.121 5.13595C11.881 6.02796 11.967 6.73195 12.595 7.19595C14.217 8.39795 14.131 10.195 13.809 11.386C13.6618 11.9152 13.459 12.4274 13.204 12.914C13.0925 13.1283 12.9714 13.3375 12.841 13.541L12.833 13.553L12.831 13.557L12.83 13.558C12.83 13.558 12.829 13.56 12 13C11.171 12.44 11.17 12.441 11.17 12.441L11.183 12.422L11.237 12.336C11.3043 12.2232 11.3683 12.1084 11.429 11.992C11.584 11.694 11.762 11.294 11.879 10.864C12.119 9.97196 12.033 9.26896 11.405 8.80396C9.78301 7.60196 9.86901 5.80596 10.191 4.61396C10.356 4.00196 10.6 3.46396 10.796 3.08596C10.9076 2.87199 11.0288 2.66312 11.159 2.45996L11.166 2.44796L11.169 2.44296L11.17 2.44096ZM28.17 2.44096L29 3.00096C29.829 3.55996 29.83 3.55896 29.83 3.55896L29.817 3.57896C29.7293 3.71891 29.6472 3.86236 29.571 4.00896C29.382 4.36782 29.2311 4.74556 29.121 5.13595C28.881 6.02796 28.967 6.73195 29.595 7.19595C31.217 8.39795 31.131 10.195 30.809 11.386C30.6618 11.9152 30.459 12.4274 30.204 12.914C30.0928 13.1283 29.972 13.3375 29.842 13.541L29.834 13.553L29.831 13.557L29.83 13.558C29.83 13.558 29.829 13.56 29 13C28.171 12.44 28.17 12.441 28.17 12.441L28.183 12.422L28.237 12.336C28.3043 12.2232 28.3683 12.1084 28.429 11.992C28.584 11.694 28.762 11.294 28.879 10.864C29.119 9.97196 29.033 9.26896 28.405 8.80396C26.783 7.60196 26.869 5.80596 27.191 4.61396C27.356 4.00196 27.6 3.46396 27.796 3.08596C27.9073 2.87201 28.0281 2.66313 28.158 2.45996L28.166 2.44796L28.169 2.44296L28.17 2.44096Z" fill="#F9FDFE"/>
</svg>
