<svg width="163" height="164" viewBox="0 0 163 164" fill="#333" xmlns="http://www.w3.org/2000/svg">
<g  clip-path="url(#clip0_92_1352)">
<path d="M78.5567 126.939V111.779C76.6119 111.432 74.6845 111.206 72.8438 110.72C65.2556 108.775 58.6571 105.042 53.7082 98.9471C47.3007 91.0636 46.2589 82.2946 50.3395 72.9525C50.4958 72.5705 50.6694 72.2058 50.8604 71.7891C50.6868 71.6849 50.5305 71.5807 50.3742 71.5112C48.1516 70.452 47.3702 68.5072 48.2384 66.2151C49.0545 64.0619 50.7389 62.7075 52.7358 61.7524C54.9411 60.6932 57.3027 60.3459 59.751 60.4848C60.4283 60.5195 61.0881 60.6237 61.3486 61.3704C61.6264 62.1344 61.1923 62.638 60.654 63.1242C55.8788 67.5001 52.458 72.692 51.0515 79.0821C50.3916 82.0688 50.2701 85.0902 51.0515 88.0769C52.6316 94.1371 58.1361 97.7836 64.4915 97.0022C67.7213 96.6029 70.5691 95.3179 73.1043 93.2689C73.2779 93.13 73.5037 93.0431 73.5384 92.8174C71.8888 93.0952 70.2392 93.4946 68.5722 93.5988C65.0125 93.8245 61.6438 93.1126 58.8134 90.8031C55.5315 88.1116 54.8716 84.5519 55.8267 80.5928C56.5039 77.7451 58.0493 75.3141 59.5253 72.8483C61.1228 70.1915 62.6335 67.4653 64.1442 64.7565C64.4742 64.1661 64.6304 63.4889 64.7694 62.8117C65.4292 59.8944 63.8838 57.6371 60.9318 57.1161C58.223 56.6473 55.7051 57.3939 53.2046 58.2969C52.5448 58.54 51.9023 58.8526 51.2251 59.113C50.1659 59.5124 49.3671 58.9741 49.3671 57.8454C49.3845 55.2755 50.7389 53.4175 52.7358 51.9936C53.3436 51.5595 53.413 51.2296 53.2046 50.5524C52.2322 47.392 52.9442 44.4401 54.5938 41.6965C55.4099 40.3421 56.4518 39.0918 57.4937 37.8763C58.3445 36.8865 59.0565 36.8692 59.9941 37.7895C60.8103 38.5883 61.5222 39.4912 62.3036 40.3942C63.6928 38.814 65.2903 37.4596 67.2177 36.5566C68.0686 36.1572 68.9716 35.8273 69.8571 35.5321C70.8816 35.2022 71.5589 35.6363 71.7151 36.6955C71.8714 37.7374 71.9582 38.7966 72.0798 39.9253C73.1911 39.6822 74.2503 39.387 75.3617 39.2481C76.7682 39.0571 78.1921 38.9529 79.5986 38.9008C81.0225 38.8487 81.526 39.5607 81.1093 40.9498C80.189 43.9365 78.5567 46.4023 75.7784 48.1213C76.1604 48.6075 76.5425 49.0417 76.8724 49.5279C78.5741 51.9589 79.3902 54.6677 79.425 57.6197C79.425 58.5747 78.9908 59.1304 78.2094 59.1651C77.3759 59.2172 76.855 58.6789 76.8376 57.6718C76.7682 54.8587 75.9868 52.3062 74.0767 50.1703C73.66 49.7189 73.1043 49.3889 72.7223 48.9027C72.4097 48.5034 72.0277 47.9477 72.0798 47.4962C72.1319 47.1142 72.6702 46.6106 73.0869 46.4544C75.5006 45.6209 77.0113 43.9191 78.1747 41.4708C77.2718 41.5923 76.5251 41.6618 75.7958 41.766C74.1462 42.0091 72.566 42.4258 71.09 43.294C70.7427 43.5024 70.0134 43.5024 69.7182 43.2767C69.3883 43.0162 69.1799 42.3911 69.1973 41.9222C69.1973 40.8283 69.3709 39.717 69.4578 38.623C69.3536 38.5535 69.232 38.4667 69.1278 38.3973C68.0686 39.0745 66.9052 39.6128 66.0022 40.4463C64.8909 41.4881 63.9532 42.721 63.0329 43.9539C62.6162 44.5095 62.2515 44.9957 61.4701 44.8568C60.6714 44.7179 60.4456 44.1275 60.4109 43.4329C60.3241 42.1827 59.7337 41.1929 58.8655 40.3421C56.0003 43.0683 54.1944 47.774 56.2781 51.3164C56.7644 52.1325 56.5039 52.775 55.653 53.2265C54.5591 53.7995 53.5172 54.4594 52.7705 55.536C54.5938 55.1887 56.3476 54.7546 58.1188 54.5288C60.4803 54.2336 62.7551 54.5809 64.7346 56.0048C67.3567 57.9149 68.1728 60.7106 67.2004 63.9924C66.419 66.6145 65.0298 68.9239 63.6233 71.216C62.3036 73.3866 60.8624 75.5051 59.6989 77.7798C58.9523 79.2384 58.3966 80.8533 58.1361 82.4682C57.5805 85.889 59.1086 88.6326 62.321 89.987C66.8184 91.8797 71.1768 91.3588 75.3617 88.9278C75.4311 88.893 75.4832 88.8062 75.5527 88.7541C75.57 88.7368 75.5527 88.702 75.6048 88.5979C75.0838 88.4416 74.5629 88.2853 74.042 88.1116C71.663 87.2955 70.2565 85.6459 69.7877 83.1975C69.1973 80.0893 69.8224 77.0679 70.3781 74.0291C71.0727 70.1568 71.8367 66.2845 72.3403 62.3949C72.6702 59.7381 72.3576 57.064 71.2637 54.5462C70.3781 52.5145 68.9368 51.1601 66.7663 50.5871C65.7939 50.3266 65.3424 49.7015 65.5334 48.9548C65.7418 48.1908 66.419 47.8435 67.3914 48.0866C70.4475 48.8333 72.4792 50.7607 73.6773 53.6085C75.1359 57.0814 75.2922 60.7279 74.7713 64.3571C74.2156 68.3162 73.2779 72.2058 72.6181 76.1475C72.3229 77.9708 72.1319 79.8635 72.2361 81.7042C72.3576 84.0484 73.6079 85.3507 75.9347 85.8716C78.7304 86.4968 78.2094 86.5315 79.3729 84.3088C81.1093 81.0096 82.6026 77.5714 84.5127 74.3764C87.3605 69.6532 91.2328 65.9373 96.5116 63.9577C100.662 62.4123 104.76 62.4123 108.632 64.8433C111.376 66.5797 113.077 69.1497 114.171 72.1364C114.605 73.3345 114.918 74.5674 115.144 75.8176C115.23 76.2691 114.97 76.9289 114.657 77.2762C114.206 77.7798 113.581 77.5541 113.043 77.1894C110.542 75.4703 107.868 74.1854 104.846 73.7339C103.996 73.6123 103.127 73.6297 102.259 73.595C102.259 73.6818 102.259 73.7513 102.242 73.8381C102.867 73.9423 103.492 74.0291 104.1 74.168C107.868 75.0883 110.212 77.6235 111.758 81.027C112.14 81.8952 112.469 82.7981 112.678 83.7184C112.782 84.1699 112.678 84.8992 112.383 85.125C112.035 85.4028 111.323 85.4549 110.855 85.316C109.327 84.8992 107.816 84.3436 106.305 83.8574C105.975 83.7532 105.611 83.7705 105.211 83.8747C105.402 83.9789 105.576 84.0831 105.767 84.1699C108.597 85.5938 109.969 88.0943 110.664 91.0115C110.907 92.036 109.9 92.7653 108.892 92.4007C108.58 92.2965 108.302 92.1228 108.007 91.9839C106.027 91.1157 104.551 91.6019 103.562 93.5467C102.832 95.0053 102.294 96.5508 101.582 98.0094C101.078 99.0686 100.54 100.145 99.8629 101.1C98.3869 103.167 96.2337 103.844 93.8201 103.01C92.7435 102.628 91.7363 102.038 90.6771 101.569C90.4514 101.465 90.0694 101.378 89.9131 101.482C86.8222 103.601 83.6792 103.149 80.5363 101.673C79.8591 101.361 79.3729 101.361 78.6956 101.708C73.5558 104.313 68.659 103.618 64.0401 100.406C63.3281 99.9021 62.6335 99.6764 61.7827 99.5722C60.1852 99.3812 58.605 99.0165 56.9206 98.7213C57.511 99.2943 58.0667 99.8674 58.6744 100.371C63.9532 104.868 69.9266 107.89 76.855 108.845C77.758 108.966 78.6783 109.001 79.5986 109.036C80.762 109.088 81.1788 109.47 81.1788 110.599C81.1788 116.381 81.1788 122.163 81.1788 127.946C81.1788 129.057 80.7446 129.474 79.5986 129.491C77.2197 129.491 74.5282 129.491 65.0993 129.491C64.0401 129.491 63.4497 129.005 63.4497 128.171C63.4497 127.373 64.0574 126.921 65.1514 126.921C73.8336 126.921 74.4587 126.921 77.428 126.921C77.7753 126.921 78.1226 126.921 78.5741 126.921L78.5567 126.939ZM67.2872 99.3812C67.3914 99.4333 67.6692 99.5895 67.9471 99.7111C72.5486 101.673 77.0634 100.701 80.5884 97.0022C83.2799 94.1718 84.9989 90.7337 86.8222 87.3302C88.7323 83.7184 90.5903 80.0719 92.7608 76.6164C94.9661 73.1088 98.3348 71.1987 102.554 71.0424C105.454 70.9382 108.18 71.737 110.785 72.9351C111.08 73.074 111.393 73.213 111.896 73.4213C110.611 69.9832 108.771 67.3785 105.437 66.1109C102.172 64.878 99.012 65.4858 95.9906 66.9618C91.6669 69.0629 88.4892 72.4316 86.1623 76.5643C84.287 79.9156 82.6895 83.4406 80.9357 86.8614C79.0256 90.5774 76.8029 94.1024 73.1564 96.3771C71.2984 97.5232 69.2494 98.3914 67.3046 99.3812H67.2872ZM109.153 81.8084C107.694 78.0055 103.683 75.8176 99.7066 76.5469C96.4595 77.1373 93.8722 78.5959 92.5177 81.791C92.1704 82.6245 91.6842 83.4232 91.2501 84.2394C89.5311 87.5039 87.8988 90.8379 86.0408 94.0329C84.9295 95.9604 83.4535 97.6795 82.1338 99.4854C83.8529 100.579 86.7006 100.44 88.5586 99.086C90.5382 97.6447 91.6842 95.561 92.7261 93.4252C93.8722 91.0983 94.914 88.702 96.1122 86.3752C98.1959 82.3119 101.113 80.7491 105.68 81.218C106.809 81.3395 107.937 81.6 109.153 81.8084ZM106.948 88.7368C106.791 88.511 106.652 88.2506 106.479 88.0422C103.683 84.5172 99.012 86.3231 97.5882 89.1882C95.8691 92.6264 94.532 96.2556 92.0489 99.4506C92.9345 99.8326 93.6812 100.232 94.4973 100.475C96.0254 100.944 97.1714 100.527 98.057 99.2249C98.4911 98.5998 98.821 97.8878 99.1336 97.1932C99.8455 95.5957 100.453 93.9635 101.252 92.4007C102.381 90.178 103.961 88.5631 106.739 88.8757C106.774 88.8757 106.826 88.8236 106.965 88.7368H106.948ZM56.6949 63.211C54.3507 63.6278 52.3885 64.4439 51.0688 66.3714C50.7389 66.8576 50.5826 67.5174 50.5305 68.1078C50.4784 68.8197 51.0862 69.1497 51.6939 69.2191C51.9891 69.2539 52.3885 68.9413 52.6143 68.6808C53.0136 68.212 53.2915 67.639 53.6735 67.1528C54.6459 65.8678 55.6357 64.6002 56.7123 63.211H56.6949Z" />
<path d="M87.3779 126.938C87.8641 126.938 88.2287 126.938 88.576 126.938C90.3124 126.938 93.8722 126.938 98.5779 126.938C99.6545 126.938 100.262 127.407 100.245 128.206C100.245 129.022 99.6372 129.491 98.5606 129.491C93.1429 129.491 88.2461 129.491 86.4228 129.491C85.242 129.491 84.8079 129.074 84.8079 127.893C84.8079 122.111 84.8079 116.329 84.8079 110.564C84.8079 109.591 85.2594 109.07 86.0755 109.07C86.8917 109.07 87.3779 109.626 87.3779 110.633C87.3779 115.704 87.3779 120.774 87.3779 125.844C87.3779 126.157 87.3779 126.487 87.3779 126.938Z" />
<path d="M61.7653 47.6177C62.6162 47.6177 63.3281 48.3643 63.3107 49.2326C63.2934 50.0661 62.5988 50.7259 61.7653 50.7433C60.8624 50.7433 60.1852 50.0661 60.1852 49.1805C60.1852 48.2949 60.8797 47.6177 61.7653 47.6177Z" />
<path d="M34.1559 40.342L32.7841 42.1652C32.6104 42.391 32.2805 42.4431 32.0548 42.2694L28.3388 39.4738C28.113 39.3001 27.7831 39.3522 27.6095 39.5779L25.2826 42.6688C25.109 42.8946 25.1611 43.2245 25.3868 43.3981L29.0854 46.1938C29.3112 46.3674 29.3633 46.6974 29.1896 46.9231L27.8178 48.7464C27.6442 48.9721 27.3143 49.0242 27.0885 48.8506L17.6249 41.7311C17.3992 41.5575 17.3471 41.2276 17.5207 41.0018L18.8925 39.1786C19.0662 38.9528 19.3961 38.9007 19.6218 39.0744L22.5564 41.2797C22.7821 41.4533 23.1121 41.4012 23.2857 41.1755L25.6125 38.0846C25.7862 37.8589 25.7341 37.5289 25.5084 37.3553L22.5738 35.15C22.348 34.9764 22.2959 34.6464 22.4696 34.4207L23.8414 32.5974C24.015 32.3717 24.3449 32.3196 24.5707 32.4933L34.0343 39.6127C34.26 39.7863 34.3121 40.1162 34.1385 40.342H34.1559Z" />
<path d="M49.3671 27.7702L47.4917 29.1246C47.3181 29.2462 47.075 29.2635 46.884 29.1246L45.2344 27.9612C45.0607 27.8397 44.8176 27.8397 44.6266 27.9612L41.3621 30.3228C41.1885 30.4443 41.1016 30.6874 41.1711 30.8958L41.7615 32.8233C41.8309 33.0316 41.7615 33.2574 41.5705 33.3963L39.7646 34.6986C39.4694 34.907 39.0526 34.7681 38.9658 34.4208L35.5624 22.2483C35.5103 22.0399 35.5797 21.8142 35.7534 21.6927L38.2712 19.8694C38.4449 19.7478 38.688 19.7305 38.8616 19.8694L49.3497 26.902C49.6449 27.1104 49.6623 27.5445 49.3497 27.7528L49.3671 27.7702ZM42.3171 25.8948L40.164 24.3668C39.7646 24.0889 39.2263 24.471 39.3652 24.9398L40.1292 27.475C40.2334 27.8223 40.6328 27.9612 40.928 27.7528L42.3171 26.7457C42.6123 26.5373 42.595 26.1032 42.3171 25.8948Z" />
<path d="M66.7315 20.7549L64.1442 21.6405C63.988 21.6926 63.8143 21.6753 63.6754 21.5711L59.2648 18.5323C59.1259 18.4455 58.9523 18.4107 58.796 18.4628L57.5805 18.8796L58.9349 22.856C59.0217 23.1339 58.8828 23.4291 58.605 23.5159L56.4518 24.2452C56.174 24.332 55.8788 24.1931 55.7919 23.9153L51.9544 12.6978C51.8676 12.42 52.0065 12.1248 52.2843 12.038L57.0595 10.4057C57.7715 10.1626 58.414 9.98899 58.9523 9.88481C59.5079 9.79798 60.0462 9.79798 60.5845 9.91954C61.1402 10.0411 61.6264 10.2668 62.0431 10.6141C62.4599 10.9614 62.7898 11.4476 63.0156 12.1075C63.3281 13.0104 63.3628 13.8092 63.1371 14.5211C62.9635 15.0768 62.6683 15.5977 62.2515 16.1013C62.0431 16.3444 62.0779 16.709 62.3557 16.8827L66.8184 19.7999C67.183 20.043 67.1136 20.5813 66.6968 20.7202L66.7315 20.7549ZM59.942 13.6355C59.8379 13.323 59.6816 13.0972 59.4906 12.9062C59.2996 12.7152 59.0217 12.6284 58.6744 12.611C58.4313 12.611 58.1709 12.6284 57.8757 12.7152C57.5805 12.802 57.2506 12.8889 56.8685 13.0278L55.7225 13.4098L56.8512 16.6917L57.8236 16.3617C58.3272 16.1881 58.7439 16.0145 59.0565 15.8582C59.369 15.6845 59.6295 15.4762 59.7858 15.2331C59.942 14.99 60.0462 14.7469 60.081 14.5037C60.1157 14.2606 60.081 13.9655 59.942 13.6355Z" />
<path d="M86.8917 19.2442L84.6169 19.2789C84.3391 19.2789 84.096 19.0532 84.096 18.7753L84.0265 13.2014C84.0265 12.6283 83.2451 12.4894 83.0194 13.0104L81.8039 15.9797C81.7171 16.1707 81.5434 16.2922 81.335 16.3096H79.7201C79.5118 16.327 79.3208 16.2054 79.2339 16.0144L77.9316 13.0798C77.7059 12.5589 76.9245 12.7325 76.9418 13.2882L77.0113 18.8622C77.0113 19.1574 76.7856 19.3831 76.5077 19.3831L74.4066 19.4178C74.1288 19.4178 73.8857 19.1921 73.8857 18.9143L73.7294 7.07171C73.7294 6.79388 73.9551 6.55078 74.233 6.55078L77.237 6.51605C77.4454 6.51605 77.6364 6.6376 77.7059 6.81125L80.0674 11.8817C80.2584 12.281 80.8315 12.281 81.0225 11.8817L83.2278 6.75915C83.3146 6.56814 83.4882 6.44659 83.6966 6.44659L86.7006 6.41187C86.9785 6.41187 87.2216 6.6376 87.2216 6.91543L87.3779 18.758C87.3779 19.0358 87.1521 19.2789 86.8743 19.2789L86.8917 19.2442Z" />
<path d="M109.292 18.3065C108.667 20.2687 107.59 21.6405 106.114 22.4219C104.621 23.2033 102.884 23.2901 100.905 22.6476C98.9252 22.0052 97.5708 20.9286 96.8241 19.4179C96.0774 17.9071 96.0253 16.1707 96.6505 14.2259C97.293 12.2637 98.3522 10.8745 99.8455 10.0931C101.339 9.31175 103.058 9.24229 105.037 9.86741C107 10.5099 108.371 11.5691 109.118 13.0798C109.865 14.5905 109.934 16.327 109.292 18.3065ZM104.1 20.0603C104.534 19.7825 104.899 19.4178 105.211 18.9664C105.524 18.5149 105.784 17.9419 106.01 17.2473C106.253 16.518 106.357 15.8581 106.357 15.2851C106.357 14.7121 106.27 14.2259 106.097 13.8091C105.923 13.3924 105.68 13.0451 105.367 12.7846C105.055 12.5242 104.69 12.3158 104.308 12.1942C103.909 12.0553 103.509 12.0206 103.11 12.038C102.711 12.0727 102.311 12.1942 101.912 12.4373C101.547 12.6631 101.183 13.0104 100.835 13.4966C100.488 13.9828 100.193 14.5732 99.9671 15.3025C99.724 16.0318 99.6198 16.6743 99.6198 17.2473C99.6198 17.8203 99.7066 18.3065 99.8803 18.7233C100.054 19.14 100.297 19.4873 100.61 19.7478C100.922 20.0256 101.287 20.2166 101.704 20.3555C102.103 20.4944 102.52 20.5292 102.936 20.4944C103.353 20.4597 103.753 20.3208 104.135 20.0777L104.1 20.0603Z" />
<path d="M122.836 34.4381L120.891 33.0316C120.752 32.9274 120.665 32.7537 120.683 32.5801L121.291 24.3146C121.325 23.7937 120.665 23.5506 120.353 23.9673L116.533 29.2288C116.359 29.4545 116.047 29.5066 115.803 29.3503L114.171 28.1695C113.945 27.9959 113.893 27.6833 114.05 27.4402L121.013 17.8551C121.186 17.6293 121.499 17.5772 121.742 17.7335L124.312 19.5915C124.451 19.6957 124.538 19.8693 124.52 20.043L124.121 26.7109C124.086 27.2319 124.746 27.475 125.059 27.0408L128.045 22.9255C128.219 22.6997 128.532 22.6476 128.775 22.8039L130.407 23.9847C130.633 24.1584 130.685 24.4709 130.528 24.714L123.565 34.2992C123.392 34.5249 123.079 34.577 122.836 34.4207V34.4381Z" />
<path d="M145.167 41.8701L137.058 42.7384C136.971 42.7384 136.867 42.7904 136.797 42.8425L133.359 45.4472C133.133 45.6209 132.803 45.5688 132.63 45.343L131.258 43.5198C131.084 43.294 131.136 42.9641 131.362 42.7904L134.679 40.2726C134.679 40.2726 134.818 40.1337 134.852 40.0469L137.96 32.3197C138.117 31.9377 138.62 31.8856 138.863 32.1981L140.409 34.2471C140.53 34.4034 140.548 34.5944 140.478 34.7681L138.69 38.8314C138.534 39.2134 138.846 39.6128 139.245 39.5607L143.587 38.9008C143.778 38.8661 143.969 38.9529 144.073 39.0918L145.531 41.0366C145.774 41.3666 145.566 41.818 145.167 41.8701Z" />
<path d="M37.976 145.553L35.8576 143.834C35.736 143.73 35.6666 143.574 35.6666 143.4L35.9097 138.052C35.9097 137.878 35.8402 137.722 35.7186 137.618L34.7289 136.819L32.0721 140.083C31.8811 140.309 31.5685 140.344 31.3428 140.153L29.589 138.729C29.3633 138.538 29.3285 138.225 29.5195 138L37.0036 128.831C37.1946 128.605 37.5072 128.571 37.7329 128.762L41.6399 131.957C42.2303 132.443 42.7165 132.877 43.0812 133.294C43.4458 133.711 43.7237 134.179 43.9147 134.7C44.1057 135.239 44.1751 135.76 44.1057 136.298C44.0362 136.836 43.7757 137.374 43.3416 137.913C42.7339 138.642 42.074 139.111 41.3621 139.302C40.8064 139.441 40.1987 139.476 39.5562 139.389C39.2436 139.337 38.9484 139.562 38.9311 139.892L38.8095 145.206C38.8095 145.64 38.2886 145.883 37.9587 145.605L37.976 145.553ZM40.4244 136.037C40.6328 135.794 40.7543 135.534 40.7891 135.273C40.8238 135.013 40.7717 134.735 40.5981 134.422C40.4765 134.214 40.3202 134.006 40.0945 133.797C39.8688 133.589 39.6083 133.363 39.2957 133.12L38.358 132.356L36.1701 135.048L36.9689 135.69C37.3856 136.02 37.7329 136.28 38.0455 136.471C38.358 136.663 38.6706 136.749 38.9658 136.767C39.261 136.767 39.5215 136.732 39.7298 136.628C39.9556 136.524 40.1813 136.333 40.407 136.055L40.4244 136.037Z" />
<path d="M61.0707 149.721C60.2893 151.613 59.1259 152.898 57.5805 153.576C56.035 154.253 54.2986 154.183 52.3712 153.402C50.4611 152.62 49.1761 151.44 48.551 149.877C47.9259 148.314 47.9953 146.578 48.7767 144.685C49.5581 142.775 50.7215 141.473 52.267 140.813C53.8124 140.153 55.5488 140.205 57.4589 140.986C59.369 141.768 60.6366 142.948 61.2791 144.511C61.9216 146.074 61.8521 147.811 61.0534 149.721H61.0707ZM55.7572 151.075C56.2087 150.832 56.6081 150.502 56.9554 150.068C57.3027 149.634 57.6152 149.078 57.893 148.418C58.1882 147.706 58.3445 147.064 58.3966 146.491C58.4313 145.918 58.3966 145.432 58.2403 145.015C58.1014 144.581 57.8757 144.216 57.5805 143.938C57.2853 143.643 56.938 143.417 56.556 143.261C56.174 143.105 55.7746 143.018 55.3752 143.018C54.9758 143.018 54.5591 143.122 54.1423 143.313C53.7603 143.504 53.3609 143.817 52.9789 144.286C52.5969 144.737 52.267 145.31 51.9718 146.005C51.6766 146.717 51.5203 147.359 51.4682 147.915C51.4335 148.488 51.4682 148.974 51.6071 149.408C51.746 149.842 51.9544 150.189 52.267 150.485C52.5795 150.78 52.9095 151.006 53.3088 151.179C53.7082 151.336 54.1076 151.422 54.5243 151.405C54.9411 151.405 55.3578 151.283 55.7572 151.075Z" />
<path d="M81.9775 152.742C81.8039 154.791 81.0746 156.354 79.7896 157.465C78.5046 158.577 76.8376 159.028 74.7713 158.854C72.7049 158.681 71.1421 157.934 70.0829 156.632C69.0236 155.329 68.5722 153.645 68.7458 151.596C68.9195 149.53 69.6488 147.95 70.9337 146.856C72.2187 145.762 73.8857 145.31 75.9521 145.484C78.0184 145.657 79.5812 146.404 80.6578 147.706C81.7344 149.009 82.1859 150.693 81.9949 152.759L81.9775 152.742ZM77.3065 155.607C77.6538 155.243 77.949 154.808 78.14 154.288C78.3484 153.767 78.4699 153.159 78.5394 152.43C78.6088 151.666 78.5741 150.988 78.4352 150.433C78.2963 149.877 78.1053 149.425 77.8448 149.061C77.5843 148.696 77.2718 148.418 76.8897 148.227C76.5251 148.036 76.1257 147.932 75.709 147.897C75.2922 147.863 74.8928 147.897 74.5108 148.019C74.1288 148.141 73.7641 148.349 73.4168 148.679C73.1043 148.974 72.8265 149.408 72.6007 149.946C72.375 150.502 72.2187 151.145 72.1666 151.891C72.0972 152.655 72.1319 153.315 72.2534 153.871C72.375 154.426 72.566 154.878 72.8265 155.243C73.0869 155.607 73.3995 155.885 73.7641 156.076C74.1288 156.267 74.5282 156.389 74.9623 156.423C75.379 156.458 75.7958 156.423 76.1952 156.284C76.5945 156.146 76.9592 155.937 77.2718 155.607H77.3065Z" />
<path d="M101.148 152.343C101.391 153.593 101.061 154.704 100.158 155.694C99.2551 156.684 97.9007 157.361 96.0948 157.708C95.0529 157.917 94.1153 158.003 93.2991 157.969C92.6219 157.951 91.9621 157.882 91.3196 157.76C91.1112 157.726 90.9376 157.552 90.9028 157.344L90.3819 154.669L90.7292 154.6C91.5106 154.999 92.3441 155.277 93.2297 155.399C94.1153 155.52 94.9488 155.503 95.7302 155.364C95.9212 155.329 96.1816 155.26 96.4942 155.156C96.8068 155.052 97.0672 154.947 97.2582 154.826C97.484 154.669 97.675 154.513 97.7965 154.322C97.9354 154.131 97.9702 153.888 97.9007 153.593C97.8486 153.315 97.675 153.107 97.4145 152.95C97.154 152.794 96.772 152.707 96.2858 152.69C95.7823 152.673 95.2613 152.655 94.723 152.673C94.1674 152.673 93.6464 152.655 93.1602 152.586C92.0315 152.447 91.1633 152.134 90.5903 151.631C89.9999 151.127 89.6352 150.45 89.4616 149.564C89.2359 148.384 89.5658 147.324 90.4687 146.369C91.3717 145.414 92.6567 144.772 94.3236 144.442C95.1571 144.286 95.9906 144.199 96.8415 144.199C97.5361 144.199 98.1612 144.233 98.7168 144.32C98.9426 144.355 99.0989 144.529 99.1336 144.737L99.6372 147.29L99.2899 147.359C98.6995 147.046 98.0049 146.838 97.2061 146.699C96.4074 146.578 95.626 146.578 94.8619 146.734C94.5841 146.786 94.3236 146.855 94.0632 146.942C93.8027 147.029 93.5596 147.151 93.3339 147.307C93.1255 147.429 92.9692 147.602 92.8477 147.811C92.7261 148.019 92.674 148.227 92.7261 148.453C92.7956 148.783 92.9692 149.009 93.2644 149.148C93.5596 149.269 94.0632 149.339 94.8098 149.356C95.296 149.356 95.7475 149.356 96.199 149.356C96.6505 149.356 97.1193 149.391 97.6576 149.46C98.6821 149.582 99.4809 149.877 100.054 150.328C100.627 150.78 100.992 151.44 101.165 152.325L101.148 152.343Z" />
<path d="M115.335 139.406L112.66 140.726C112.4 140.847 112.296 141.16 112.417 141.42L116.55 149.807C116.672 150.068 116.567 150.381 116.307 150.502L114.258 151.509C113.998 151.631 113.685 151.527 113.563 151.266L109.431 142.879C109.309 142.619 108.997 142.514 108.736 142.636L106.062 143.956C105.802 144.077 105.489 143.973 105.367 143.713L104.725 142.41C104.603 142.15 104.708 141.837 104.968 141.716L114.223 137.149C114.484 137.027 114.796 137.131 114.918 137.392L115.56 138.694C115.682 138.955 115.578 139.267 115.317 139.389L115.335 139.406Z" />
<path d="M135.009 137.184L128.775 142.619C128.549 142.81 128.219 142.792 128.028 142.567L120.249 133.641C120.058 133.415 120.075 133.086 120.301 132.895L126.535 127.459C126.76 127.268 127.09 127.286 127.281 127.512L128.236 128.606C128.427 128.831 128.41 129.161 128.184 129.352L124.434 132.617C124.208 132.808 124.19 133.138 124.381 133.363L125.163 134.249C125.354 134.475 125.684 134.492 125.91 134.301L129.33 131.314C129.556 131.123 129.886 131.141 130.077 131.366L131.032 132.46C131.223 132.686 131.206 133.016 130.98 133.207L127.559 136.194C127.333 136.385 127.316 136.715 127.507 136.94L128.914 138.555C129.105 138.781 129.435 138.798 129.66 138.607L133.411 135.343C133.637 135.152 133.967 135.169 134.158 135.395L135.113 136.489C135.304 136.715 135.286 137.045 135.061 137.236L135.009 137.184Z" />
<path d="M148.657 119.454L147.164 121.729C147.077 121.868 146.921 121.955 146.747 121.955L141.399 122.25C141.225 122.25 141.086 122.354 140.982 122.493L140.287 123.552L143.795 125.862C144.038 126.018 144.107 126.348 143.951 126.591L142.701 128.484C142.545 128.727 142.215 128.796 141.972 128.64L132.091 122.111C131.848 121.955 131.779 121.625 131.935 121.382L134.713 117.162C135.13 116.52 135.529 115.999 135.911 115.6C136.293 115.183 136.728 114.87 137.231 114.627C137.735 114.384 138.256 114.262 138.794 114.28C139.332 114.297 139.888 114.488 140.478 114.87C141.277 115.391 141.798 115.999 142.058 116.711C142.249 117.249 142.336 117.84 142.319 118.499C142.319 118.829 142.562 119.09 142.875 119.072L148.171 118.656C148.605 118.621 148.883 119.107 148.657 119.472V119.454ZM138.933 117.961C138.655 117.787 138.395 117.683 138.134 117.666C137.874 117.666 137.596 117.735 137.301 117.944C137.092 118.083 136.901 118.274 136.728 118.499C136.554 118.725 136.346 119.02 136.12 119.35L135.46 120.357L138.36 122.267L138.916 121.417C139.211 120.965 139.436 120.583 139.593 120.253C139.749 119.923 139.818 119.611 139.801 119.316C139.784 119.02 139.714 118.777 139.593 118.569C139.471 118.36 139.263 118.152 138.95 117.961H138.933Z" />
<path d="M81.5087 143.001C48.1169 143.001 20.9589 115.843 20.9589 82.4508C20.9589 49.059 48.1169 21.9183 81.5087 21.9183C114.9 21.9183 142.058 49.0763 142.058 82.4681C142.058 115.86 114.9 143.018 81.5087 143.018V143.001ZM81.5087 24.2452C49.4018 24.2452 23.2857 50.3613 23.2857 82.4681C23.2857 114.575 49.4018 140.691 81.5087 140.691C113.616 140.691 139.732 114.575 139.732 82.4681C139.732 50.3613 113.598 24.2452 81.5087 24.2452Z" />
<path d="M81.5087 163.959C36.5695 163.959 0 127.407 0 82.4681C0 37.529 36.5695 0.959473 81.5087 0.959473C126.448 0.959473 163.017 37.529 163.017 82.4681C163.017 127.407 126.448 163.977 81.5087 163.977V163.959ZM81.5087 3.28631C37.8545 3.28631 2.32683 38.8139 2.32683 82.4681C2.32683 126.122 37.8371 161.65 81.5087 161.65C125.18 161.65 160.691 126.14 160.691 82.4681C160.691 38.7966 125.163 3.28631 81.5087 3.28631Z" />
</g>
<defs>
<clipPath id="clip0_92_1352">
<rect width="163" height="163" fill="white" transform="translate(0 0.959473)"/>
</clipPath>
</defs>
</svg>
