<svg width="41" height="41" viewBox="0 0 41 41" fill="none" xmlns="http://www.w3.org/2000/svg">
<g clip-path="url(#clip0_92_1169)">
<path d="M5.66664 14.7095C5.66646 13.2591 6.02678 11.8315 6.71521 10.555C7.40363 9.27848 8.39857 8.1931 9.61052 7.39649C10.8225 6.59987 12.2134 6.117 13.6583 5.9913C15.1031 5.8656 16.5566 6.10103 17.8879 6.67639C19.2192 7.25175 20.3866 8.14902 21.2851 9.28748C22.1837 10.4259 22.7851 11.7699 23.0354 13.1984C23.2856 14.627 23.1769 16.0954 22.7189 17.4715C22.2609 18.8476 21.4681 20.0883 20.4116 21.082C22.4037 22.0486 24.1332 23.4813 25.4536 25.2587C26.774 27.0361 27.6463 29.1057 27.9966 31.292C28.0352 31.5352 28.0255 31.7837 27.968 32.0232C27.9106 32.2628 27.8065 32.4886 27.6618 32.6879C27.517 32.8872 27.3344 33.056 27.1244 33.1848C26.9145 33.3135 26.6812 33.3996 26.4379 33.4382C26.1946 33.4768 25.9461 33.4671 25.7066 33.4096C25.4671 33.3521 25.2412 33.2481 25.0419 33.1033C24.8426 32.9586 24.6738 32.776 24.5451 32.566C24.4163 32.356 24.3302 32.1227 24.2916 31.8795C23.9167 29.5302 22.7165 27.3916 20.9066 25.8477C19.0966 24.3038 16.7956 23.4556 14.4166 23.4556C12.0377 23.4556 9.73662 24.3038 7.92672 25.8477C6.11681 27.3916 4.91661 29.5302 4.54164 31.8795C4.50289 32.1227 4.41662 32.356 4.28773 32.5659C4.15884 32.7758 3.98987 32.9583 3.79045 33.103C3.59104 33.2476 3.36509 33.3515 3.12551 33.4088C2.88593 33.4661 2.63741 33.4757 2.39413 33.437C2.15086 33.3982 1.9176 33.3119 1.70767 33.183C1.49774 33.0542 1.31525 32.8852 1.17062 32.6858C1.026 32.4864 0.922062 32.2604 0.864757 32.0208C0.807451 31.7812 0.797895 31.5327 0.836635 31.2895C1.18747 29.104 2.06007 27.0353 3.38047 25.2589C4.70086 23.4824 6.43011 22.0504 8.42164 21.0845C7.55081 20.2668 6.85701 19.2791 6.38314 18.1826C5.90927 17.0861 5.66541 15.904 5.66664 14.7095ZM28.1666 10.9595C29.6192 10.9605 31.0402 11.3831 32.2572 12.1761C33.4741 12.969 34.4348 14.0982 35.0224 15.4266C35.6101 16.7549 35.7995 18.2253 35.5677 19.6592C35.336 21.0931 34.6929 22.4289 33.7166 23.5045C35.2383 24.2599 36.5904 25.3171 37.6907 26.6116C38.7909 27.9061 39.6163 29.4109 40.1166 31.0345C40.2157 31.3496 40.2297 31.6854 40.1571 32.0077C40.0844 32.33 39.9278 32.6274 39.7031 32.8696C39.4784 33.1118 39.1936 33.2903 38.8777 33.3868C38.5617 33.4834 38.2258 33.4947 37.9041 33.4195C37.5827 33.3446 37.2866 33.1864 37.0457 32.9608C36.8048 32.7353 36.6275 32.4503 36.5316 32.1345C36.0836 30.685 35.2671 29.3766 34.1619 28.3372C33.0568 27.2977 31.7008 26.5629 30.2266 26.2045C29.8172 26.1056 29.453 25.8718 29.1927 25.5408C28.9324 25.2097 28.7911 24.8006 28.7916 24.3795V23.4995C28.7914 23.1504 28.8886 22.8082 29.0724 22.5113C29.2561 22.2145 29.5191 21.9749 29.8316 21.8195C30.5895 21.4438 31.1982 20.823 31.5587 20.0578C31.9193 19.2926 32.0105 18.428 31.8177 17.6044C31.6248 16.7808 31.1591 16.0466 30.4963 15.5211C29.8335 14.9955 29.0125 14.7095 28.1666 14.7095C27.6694 14.7095 27.1924 14.5119 26.8408 14.1603C26.4892 13.8086 26.2916 13.3317 26.2916 12.8345C26.2916 12.3372 26.4892 11.8603 26.8408 11.5086C27.1924 11.157 27.6694 10.9595 28.1666 10.9595ZM14.4166 9.70945C13.7508 9.6944 13.0886 9.81252 12.4691 10.0569C11.8495 10.3012 11.285 10.6669 10.8087 11.1325C10.3324 11.598 9.95391 12.154 9.69545 12.7678C9.43699 13.3816 9.30376 14.0409 9.3036 14.7069C9.30343 15.3729 9.43633 16.0323 9.69448 16.6462C9.95264 17.2602 10.3308 17.8164 10.8069 18.2821C11.283 18.7479 11.8473 19.1139 12.4667 19.3585C13.0862 19.6032 13.7483 19.7217 14.4141 19.707C15.7205 19.6781 16.9637 19.1389 17.8776 18.2049C18.7914 17.2708 19.3033 16.0161 19.3036 14.7094C19.3039 13.4027 18.7927 12.1478 17.8793 11.2133C16.9659 10.2788 15.723 9.73899 14.4166 9.70945Z" fill="#4C4C4C"/>
</g>
<defs>
<clipPath id="clip0_92_1169">
<rect width="40" height="40" fill="white" transform="translate(0.666626 0.959473)"/>
</clipPath>
</defs>
</svg>
