<svg width="22" height="30" viewBox="0 0 22 30" fill="none" xmlns="http://www.w3.org/2000/svg">
<path d="M19.5714 0H2.42856C1.86024 0 1.3152 0.225765 0.913334 0.627628C0.51147 1.02949 0.285706 1.57454 0.285706 2.14286V6.42857C0.285706 6.99689 0.51147 7.54194 0.913334 7.9438C1.3152 8.34566 1.86024 8.57143 2.42856 8.57143V27.8571C2.42856 28.4255 2.65433 28.9705 3.05619 29.3724C3.45806 29.7742 4.0031 30 4.57142 30H17.4286C17.9969 30 18.5419 29.7742 18.9438 29.3724C19.3457 28.9705 19.5714 28.4255 19.5714 27.8571V8.57143C20.1397 8.57143 20.6848 8.34566 21.0866 7.9438C21.4885 7.54194 21.7143 6.99689 21.7143 6.42857V2.14286C21.7143 1.57454 21.4885 1.02949 21.0866 0.627628C20.6848 0.225765 20.1397 0 19.5714 0ZM4.57142 12.8571H7.78571V23.5714H4.57142V12.8571ZM17.4286 27.8571H4.57142V25.7143H9.92856V10.7143H4.57142V8.57143H17.4286V27.8571ZM2.42856 6.42857V2.14286H19.5714V6.42857H2.42856Z" fill="#F9FDFE"/>
</svg>
