<svg viewBox="0 0 183 13"  xmlns="http://www.w3.org/2000/svg">
<path d="M10.9141 12.4797H7.91406V7.35474H3.48438V12.4797H0.484375V0.846924H3.48438V5.10474H7.91406V0.846924H10.9141V12.4797ZM24.6406 12.4797H21.5391L20.7344 10.1282H16.4219L15.6172 12.4797H12.5938L16.8906 0.846924H20.3438L24.6406 12.4797ZM20.0078 7.99536L18.5781 3.82349L17.1484 7.99536H20.0078ZM32.8359 4.40942C32.8359 4.11776 32.776 3.86776 32.6562 3.65942C32.5365 3.45109 32.3307 3.28703 32.0391 3.16724C31.8359 3.0839 31.599 3.03442 31.3281 3.0188C31.0573 2.99797 30.7422 2.98755 30.3828 2.98755H29.2969V6.12036H30.2188C30.6979 6.12036 31.099 6.09692 31.4219 6.05005C31.7448 6.00317 32.0156 5.8964 32.2344 5.72974C32.4427 5.56828 32.5938 5.39119 32.6875 5.19849C32.7865 5.00057 32.8359 4.73755 32.8359 4.40942ZM37.5156 12.4797H33.8516L30.6797 8.21411H29.2969V12.4797H26.3125V0.846924H31.3438C32.0312 0.846924 32.6224 0.885986 33.1172 0.964111C33.612 1.04224 34.0755 1.21151 34.5078 1.47192C34.9453 1.73234 35.2917 2.07088 35.5469 2.48755C35.8073 2.89901 35.9375 3.41724 35.9375 4.04224C35.9375 4.90161 35.737 5.60213 35.3359 6.1438C34.9401 6.68547 34.3724 7.13599 33.6328 7.49536L37.5156 12.4797ZM51.0234 12.4797H48.0391V4.69067L45.8828 9.74536H43.8125L41.6562 4.69067V12.4797H38.8281V0.846924H42.3125L44.9297 6.68286L47.5391 0.846924H51.0234V12.4797ZM65.3125 6.66724C65.3125 8.5214 64.7812 9.99536 63.7188 11.0891C62.6562 12.1777 61.1875 12.7219 59.3125 12.7219C57.4427 12.7219 55.9766 12.1777 54.9141 11.0891C53.8516 9.99536 53.3203 8.5214 53.3203 6.66724C53.3203 4.79744 53.8516 3.32088 54.9141 2.23755C55.9766 1.14901 57.4427 0.604736 59.3125 0.604736C61.1771 0.604736 62.6432 1.14901 63.7109 2.23755C64.7786 3.32088 65.3125 4.79744 65.3125 6.66724ZM61.3359 9.61255C61.6276 9.25838 61.8438 8.84172 61.9844 8.36255C62.125 7.87817 62.1953 7.31047 62.1953 6.65942C62.1953 5.96151 62.1146 5.36776 61.9531 4.87817C61.7917 4.38859 61.5807 3.99276 61.3203 3.69067C61.0547 3.37817 60.7474 3.15161 60.3984 3.01099C60.0547 2.87036 59.6953 2.80005 59.3203 2.80005C58.9401 2.80005 58.5807 2.86776 58.2422 3.00317C57.9089 3.13859 57.6016 3.36255 57.3203 3.67505C57.0599 3.96672 56.8464 4.37036 56.6797 4.88599C56.5182 5.3964 56.4375 5.99015 56.4375 6.66724C56.4375 7.35994 56.5156 7.95109 56.6719 8.44067C56.8333 8.92505 57.0443 9.32088 57.3047 9.62817C57.5651 9.93547 57.8698 10.162 58.2188 10.3079C58.5677 10.4537 58.9349 10.5266 59.3203 10.5266C59.7057 10.5266 60.0729 10.4537 60.4219 10.3079C60.7708 10.1568 61.0755 9.92505 61.3359 9.61255ZM78.1875 12.4797H75.2969L70.3594 4.49536V12.4797H67.6094V0.846924H71.1953L75.4375 7.51099V0.846924H78.1875V12.4797ZM91.3906 0.846924L87.1016 7.97974V12.4797H84.1016V8.12036L79.7422 0.846924H83.1484L85.6641 5.34692L88.0938 0.846924H91.3906Z" fill="#045F7E"/>
<path d="M104.945 4.40942C104.945 4.11776 104.885 3.86776 104.766 3.65942C104.646 3.45109 104.44 3.28703 104.148 3.16724C103.945 3.0839 103.708 3.03442 103.438 3.0188C103.167 2.99797 102.852 2.98755 102.492 2.98755H101.406V6.12036H102.328C102.807 6.12036 103.208 6.09692 103.531 6.05005C103.854 6.00317 104.125 5.8964 104.344 5.72974C104.552 5.56828 104.703 5.39119 104.797 5.19849C104.896 5.00057 104.945 4.73755 104.945 4.40942ZM109.625 12.4797H105.961L102.789 8.21411H101.406V12.4797H98.4219V0.846924H103.453C104.141 0.846924 104.732 0.885986 105.227 0.964111C105.721 1.04224 106.185 1.21151 106.617 1.47192C107.055 1.73234 107.401 2.07088 107.656 2.48755C107.917 2.89901 108.047 3.41724 108.047 4.04224C108.047 4.90161 107.846 5.60213 107.445 6.1438C107.049 6.68547 106.482 7.13599 105.742 7.49536L109.625 12.4797ZM122.25 6.66724C122.25 8.5214 121.719 9.99536 120.656 11.0891C119.594 12.1777 118.125 12.7219 116.25 12.7219C114.38 12.7219 112.914 12.1777 111.852 11.0891C110.789 9.99536 110.258 8.5214 110.258 6.66724C110.258 4.79744 110.789 3.32088 111.852 2.23755C112.914 1.14901 114.38 0.604736 116.25 0.604736C118.115 0.604736 119.581 1.14901 120.648 2.23755C121.716 3.32088 122.25 4.79744 122.25 6.66724ZM118.273 9.61255C118.565 9.25838 118.781 8.84172 118.922 8.36255C119.062 7.87817 119.133 7.31047 119.133 6.65942C119.133 5.96151 119.052 5.36776 118.891 4.87817C118.729 4.38859 118.518 3.99276 118.258 3.69067C117.992 3.37817 117.685 3.15161 117.336 3.01099C116.992 2.87036 116.633 2.80005 116.258 2.80005C115.878 2.80005 115.518 2.86776 115.18 3.00317C114.846 3.13859 114.539 3.36255 114.258 3.67505C113.997 3.96672 113.784 4.37036 113.617 4.88599C113.456 5.3964 113.375 5.99015 113.375 6.66724C113.375 7.35994 113.453 7.95109 113.609 8.44067C113.771 8.92505 113.982 9.32088 114.242 9.62817C114.503 9.93547 114.807 10.162 115.156 10.3079C115.505 10.4537 115.872 10.5266 116.258 10.5266C116.643 10.5266 117.01 10.4537 117.359 10.3079C117.708 10.1568 118.013 9.92505 118.273 9.61255ZM135.859 6.66724C135.859 8.5214 135.328 9.99536 134.266 11.0891C133.203 12.1777 131.734 12.7219 129.859 12.7219C127.99 12.7219 126.523 12.1777 125.461 11.0891C124.398 9.99536 123.867 8.5214 123.867 6.66724C123.867 4.79744 124.398 3.32088 125.461 2.23755C126.523 1.14901 127.99 0.604736 129.859 0.604736C131.724 0.604736 133.19 1.14901 134.258 2.23755C135.326 3.32088 135.859 4.79744 135.859 6.66724ZM131.883 9.61255C132.174 9.25838 132.391 8.84172 132.531 8.36255C132.672 7.87817 132.742 7.31047 132.742 6.65942C132.742 5.96151 132.661 5.36776 132.5 4.87817C132.339 4.38859 132.128 3.99276 131.867 3.69067C131.602 3.37817 131.294 3.15161 130.945 3.01099C130.602 2.87036 130.242 2.80005 129.867 2.80005C129.487 2.80005 129.128 2.86776 128.789 3.00317C128.456 3.13859 128.148 3.36255 127.867 3.67505C127.607 3.96672 127.393 4.37036 127.227 4.88599C127.065 5.3964 126.984 5.99015 126.984 6.66724C126.984 7.35994 127.062 7.95109 127.219 8.44067C127.38 8.92505 127.591 9.32088 127.852 9.62817C128.112 9.93547 128.417 10.162 128.766 10.3079C129.115 10.4537 129.482 10.5266 129.867 10.5266C130.253 10.5266 130.62 10.4537 130.969 10.3079C131.318 10.1568 131.622 9.92505 131.883 9.61255ZM147.469 8.82349C147.469 9.96932 146.982 10.9016 146.008 11.6204C145.039 12.3339 143.721 12.6907 142.055 12.6907C141.091 12.6907 140.25 12.6073 139.531 12.4407C138.818 12.2688 138.148 12.0527 137.523 11.7922V9.00317H137.852C138.471 9.49797 139.164 9.87817 139.93 10.1438C140.701 10.4094 141.44 10.5422 142.148 10.5422C142.331 10.5422 142.57 10.5266 142.867 10.4954C143.164 10.4641 143.406 10.412 143.594 10.3391C143.823 10.2454 144.01 10.1282 144.156 9.98755C144.307 9.84692 144.383 9.63859 144.383 9.36255C144.383 9.10734 144.273 8.88859 144.055 8.7063C143.841 8.5188 143.526 8.37557 143.109 8.27661C142.672 8.17244 142.208 8.07609 141.719 7.98755C141.234 7.8938 140.779 7.77661 140.352 7.63599C139.372 7.31828 138.667 6.88859 138.234 6.34692C137.807 5.80005 137.594 5.12297 137.594 4.31567C137.594 3.23234 138.078 2.34953 139.047 1.66724C140.021 0.979736 141.271 0.635986 142.797 0.635986C143.562 0.635986 144.318 0.711507 145.062 0.862549C145.812 1.00838 146.461 1.19328 147.008 1.41724V4.09692H146.688C146.219 3.72192 145.643 3.40942 144.961 3.15942C144.284 2.90422 143.591 2.77661 142.883 2.77661C142.633 2.77661 142.383 2.79484 142.133 2.8313C141.888 2.86255 141.651 2.92505 141.422 3.0188C141.219 3.09692 141.044 3.21672 140.898 3.37817C140.753 3.53442 140.68 3.71411 140.68 3.91724C140.68 4.22453 140.797 4.46151 141.031 4.62817C141.266 4.78963 141.708 4.93807 142.359 5.07349C142.786 5.16203 143.195 5.24797 143.586 5.3313C143.982 5.41463 144.406 5.52922 144.859 5.67505C145.75 5.96672 146.406 6.36515 146.828 6.87036C147.255 7.37036 147.469 8.0214 147.469 8.82349ZM158.633 3.09692H155V12.4797H152V3.09692H148.367V0.846924H158.633V3.09692ZM168.852 12.4797H160.438V0.846924H168.852V3.09692H163.422V5.10474H168.461V7.35474H163.422V10.2297H168.852V12.4797ZM177.898 4.40942C177.898 4.11776 177.839 3.86776 177.719 3.65942C177.599 3.45109 177.393 3.28703 177.102 3.16724C176.898 3.0839 176.661 3.03442 176.391 3.0188C176.12 2.99797 175.805 2.98755 175.445 2.98755H174.359V6.12036H175.281C175.76 6.12036 176.161 6.09692 176.484 6.05005C176.807 6.00317 177.078 5.8964 177.297 5.72974C177.505 5.56828 177.656 5.39119 177.75 5.19849C177.849 5.00057 177.898 4.73755 177.898 4.40942ZM182.578 12.4797H178.914L175.742 8.21411H174.359V12.4797H171.375V0.846924H176.406C177.094 0.846924 177.685 0.885986 178.18 0.964111C178.674 1.04224 179.138 1.21151 179.57 1.47192C180.008 1.73234 180.354 2.07088 180.609 2.48755C180.87 2.89901 181 3.41724 181 4.04224C181 4.90161 180.799 5.60213 180.398 6.1438C180.003 6.68547 179.435 7.13599 178.695 7.49536L182.578 12.4797Z" fill="#C3720B"/>
</svg>
